<svg id="Layer_1" data-name="Layer 1" xmlns="http://www.w3.org/2000/svg" viewBox="0 0 359.47 359.77"><title>logo</title><path d="M103.21,76.77c3.46,2.37,6.72,4.56,9.93,6.82,10.74,7.56,21.36,15.28,32.2,22.69,7.75,5.29,15.89,10,23.66,15.27,11.68,7.92,23.09,16.26,34.85,24a10.46,10.46,0,0,0,7.79,1c13.25-3.91,26.32-8.44,39.58-12.35a18,18,0,0,1,9.67,0c13.1,3.86,26,8.33,39.12,12.19a10.53,10.53,0,0,0,7.78-.8c11.25-7.32,22.2-15.11,33.27-22.71q23.81-16.32,47.63-32.6c6.56-4.5,13.08-9.06,20.29-14.06.37,8.13,1,15.46,1,22.77-.15,18.65-.77,37.29-.88,55.93-.05,9.47.83,19,.88,28.43.14,24,0,47.91.21,71.86,0,2.59,1.57,5.6,3.31,7.66,6.56,7.74,13.33,15.32,20.35,22.64,3.51,3.65,1.86,7.15.45,10.5-5,11.8-10.06,23.55-15.53,35.13a10.13,10.13,0,0,1-6.09,4.8c-20.72,5-41.56,9.57-62.28,14.6a9.55,9.55,0,0,0-5.89,5c-5.31,14.27-10.13,28.72-15.14,43.09-3.9,11.19-7.86,22.36-11.75,33.56-.93,2.69-2.51,3.85-5.53,3.84q-48.26-.14-96.49-.06c-5.12,0-10.25-.16-15.36,0-3.37.12-5.16-1.16-6.22-4.39q-7.34-22.41-15-44.73c-3.64-10.57-7.39-21.1-11.53-31.48a9.14,9.14,0,0,0-5.51-4.75c-19.91-4.84-39.86-9.49-59.89-13.81-5.25-1.13-8.44-3.41-10.47-8.5-4.69-11.75-10-23.24-14.76-35-.75-1.84-.43-5.11.78-6.57,6.67-8.08,13.56-16,20.81-23.54A12.12,12.12,0,0,0,102,254q-.09-76.49,0-153C102.06,93.11,102.79,85.21,103.21,76.77Zm292.56,25.67c-1.76,1.07-3.19,1.85-4.54,2.77-22.68,15.43-45.31,31-68,46.3q-27.74,18.74-55.71,37.11c-4.55,3-6.51,6.47-5.81,12.08.59,4.73-.13,9.61-.18,14.43-.06,5,0,10,0,15.06l1.68.3,106.43-82.05L371,149c-.24,4.51-.78,9-.66,13.53.44,17.46,1,34.92,1.8,52.37a14.81,14.81,0,0,0,3.3,7.86c4.46,5.56,9.34,10.8,14.21,16,1.5,1.61,3.47,2.79,6.11,4.86Zm-254,45.3L249.49,231c.55-2.09,1.08-3.17,1.07-4.24-.07-10.14,0-20.3-.52-30.42-.1-2.11-1.75-4.66-3.46-6.05-3.33-2.72-7.28-4.67-10.85-7.11-17.14-11.72-34.18-23.6-51.37-35.25-21.2-14.36-42.51-28.56-63.78-42.81-1.31-.88-2.73-1.61-4.13-2.43V243.22a19,19,0,0,0,2.63-1.8c5.61-5.9,11-12,16.81-17.7a13.25,13.25,0,0,0,4.18-10.15c.16-19.79.58-39.59,1-59.38C141.06,152.42,141.41,150.66,141.75,147.74ZM315.22,397l1.23.26c4.92-14.38,9.87-28.76,14.74-43.16,7.35-21.73,14.61-43.5,22-65.22,3.2-9.44,6.57-18.82,9.95-28.19,1.23-3.41,0-5.1-3.39-5.57-3.78-.53-7.57-1.36-11.37-1.4a8.65,8.65,0,0,0-5.85,2.25c-3.63,3.87-6.45,8.53-10.18,12.27a17.34,17.34,0,0,1-8.3,4.54,147.12,147.12,0,0,1-17.8,2.17c-3.27.28-4.22,1.6-3.83,4.85,1.35,11,2.51,22,3.61,33.08.69,6.87,1,13.79,1.75,20.66.93,8.52,2.22,17,3.22,25.52C312.46,371.71,313.81,384.37,315.22,397Zm-119.4.8,1-.16c.89-8.58,1.69-17.16,2.7-25.72,1.89-16.13,4.05-32.23,5.8-48.38,1.21-11.18,1.91-22.43,2.81-33.65.37-4.59,2.57-10.67.46-13.35s-8.52-2.47-13.08-2.65c-9.08-.36-16.46-3.24-20.89-11.68-4.13-7.86-10.24-10.65-18.77-7.37a10.53,10.53,0,0,1-2.48.2c-4.95.52-5.79,1.75-4.15,6.45,4.12,11.85,8.37,23.67,12.47,35.53,3.09,8.94,6,17.94,9.05,26.89,5.17,15.22,10.4,30.42,15.58,45.64C189.52,379,192.66,388.39,195.82,397.81ZM289.6,278.88a4.77,4.77,0,0,0-1.41.54c-7.85,6.93-15.74,13.82-23.44,20.91a6.82,6.82,0,0,0-1.7,4.48c-.42,18.94-.69,37.88-1,56.81-.06,3.25,1.64,4.41,4.67,4.38,5-.06,10,0,15,0,6.08-.05,7.13,5.05,9.36,9,2.07,3.66.39,6.2-2.22,8.75-7,6.88-13.85,13.94-20.9,20.78-2.5,2.43-2.63,4.2.15,6.46,4,3.26,7.64,6.95,11.7,10.13a12.31,12.31,0,0,0,6.2,2.71c5,.4,10,.15,15,.14,3,0,4-1.47,3.66-4.48-1.38-12.06-2.6-24.13-3.89-36.19q-3.87-36.12-7.75-72.23C291.84,300.37,290.73,289.69,289.6,278.88Zm-66.94-.61c-2.36,21-4.67,40.82-6.79,60.61-2.87,26.75-5.56,53.53-8.45,80.28-.35,3.21.51,4.54,3.8,4.86,11.38,1.11,21.91.06,29.39-10.1a8.57,8.57,0,0,1,2.59-2.32c4.34-2.46,3.31-4.77.29-7.68q-10.78-10.4-21.17-21.2c-1.28-1.31-2.61-3.33-2.58-5,.12-6,7.22-11.94,13.08-11.71,4.12.16,8.26-.08,12.38,0,3.37.08,4.81-1.4,4.8-4.78-.07-16.61.18-33.22-.2-49.82-.1-4.38.19-9.25-4.11-12.8-6-5-11.58-10.49-17.38-15.73C226.75,281.47,225.06,280.22,222.66,278.27Zm-90.27-32.64.86.85c2.2-.53,4.39-1.16,6.62-1.58,17.31-3.28,34.66-6.42,51.94-9.87,4-.8,6.82-.14,9.74,2.88,10.41,10.74,21.08,21.21,31.66,31.78,4,4,7.91,8.07,12,11.9,1.06,1,2.85,1.16,4.31,1.71a25.92,25.92,0,0,0,.75-3.95c.06-1.66-.32-3.32-.3-5,.1-8,.39-16,.35-24,0-2.12-.26-5.19-1.61-6.21-12.88-9.67-26-18.93-39-28.43q-13.1-9.57-25.92-19.5c-3-2.31-5-2.06-7.55.84-6.26,7.26-12.77,14.3-19.26,21.35-5.4,5.87-11,11.58-16.36,17.46C137.76,239.06,135.13,242.39,132.39,245.63Zm200-52.21c-13.6,10-26.85,19.74-40.07,29.5-9,6.62-17.68,13.65-27,19.76-3.44,2.27-4.23,4.61-4.07,8,.22,4.49.43,9,.74,13.45.45,6.49,1,13,1.5,19.63.92-.32,1.31-.35,1.52-.56,15.71-15.35,31.36-30.78,47.19-46a8.72,8.72,0,0,1,6.25-2.24c6.6.81,13.11,2.3,19.66,3.53l40.52,7.57.91-.94Zm45.45,66.22-1.24-.09c-9,26.09-17.92,52.17-27,78.55l48.44-11.62c5-1.21,5.51-2.43,3.47-7.33-3.61-8.67-7.22-17.35-10.69-26.08C386.45,282,382.18,270.78,377.86,259.64Zm-242.45-.15-1.22.22q-6.67,16.65-13.34,33.29c-3.62,9.09-7.24,18.18-10.73,27.32-1,2.59-1.56,5,2.56,5.94,16.49,3.76,32.91,7.79,49.58,11.77C153.27,311.72,144.34,285.61,135.41,259.49ZM291.07,157.35c-8-2.33-14.67-3.73-20.93-6.27a36,36,0,0,0-28.41,0c-6.22,2.51-12.88,3.92-20.59,6.2,9.77,6.9,18.42,13,27.05,19.13,4.81,3.42,8.95,5.4,14.79.58C271.37,170.1,280.8,164.44,291.07,157.35ZM276.33,380.07c-.23-.63-.46-1.26-.68-1.9-13.17-.12-26.34-.54-40.29.23.92,2,1.08,2.93,1.62,3.44,5.72,5.27,11.46,10.53,17.32,15.64a3.25,3.25,0,0,0,3.14,0C263.82,391.78,270.05,385.9,276.33,380.07ZM118.56,261.6l-.77-.36c-8.31,9.18-16.67,18.33-24.89,27.59-.91,1-1.84,2.95-1.5,4.06,2,6.51,4.39,12.9,6.64,19.33l1.69-.26ZM412.26,312l1.44,0q2.63-6.68,5.24-13.34c2.78-7.1,2.52-8-3.16-13.42-1.79-1.72-3.34-3.69-5-5.54l-16.22-17.94-.77.54Zm-242-125.34L152.1,172.69v32.08l1.28.48Zm189.51-13.32c-4.6,3.31-8.25,5.81-11.76,8.48-6.63,5-6.57,5-.81,10.92,2,2,3.67,4.27,5.6,6.32s3.84,3.79,5.77,5.68l1.2-.64ZM331,249.77c-5.56-.21-10.73-2-14-.17-4.62,2.53-7.81,7.65-12,12.08C317.7,263,322.3,261,331,249.77ZM206.41,262.42c-7.21-13.13-14.85-16.51-23.9-11.3C186.59,262.49,196.62,261.28,206.41,262.42Zm44.78,161.06h9.73C256.72,417.19,255.1,417.2,251.19,423.48Z" transform="translate(-76.45 -76.28)" fill="#fff"/></svg>